name C:\Users\u0101727\Documents\MyRepositories\upper-imu-dc\Results\main_tracking\Case_14\ABD01_angularVelocities_bodyFrame.mot
datacolumns 4
datarows 141
range 4.56000000 5.96000000
endheader 
time	radius_imu_x	radius_imu_y	radius_imu_z	
          4.56000000	         -0.74438042	         -0.27299230	         -0.37176871	
          4.57000000	         -0.74151818	         -0.26910537	         -0.36209948	
          4.58000000	         -0.73935016	         -0.26803897	         -0.35257609	
          4.59000000	         -0.73798725	         -0.26762338	         -0.34362908	
          4.60000000	         -0.73755527	         -0.26552017	         -0.33570642	
          4.61000000	         -0.73813593	         -0.26007529	         -0.32919662	
          4.62000000	         -0.73968305	         -0.25081261	         -0.32432810	
          4.63000000	         -0.74196077	         -0.23852835	         -0.32109004	
          4.64000000	         -0.74454564	         -0.22507645	         -0.31922275	
          4.65000000	         -0.74690734	         -0.21292064	         -0.31829081	
          4.66000000	         -0.74854136	         -0.20449783	         -0.31780025	
          4.67000000	         -0.74909068	         -0.20147705	         -0.31729494	
          4.68000000	         -0.74839441	         -0.20409157	         -0.31639124	
          4.69000000	         -0.74644805	         -0.21080311	         -0.31476301	
          4.70000000	         -0.74331595	         -0.21853695	         -0.31212307	
          4.71000000	         -0.73905506	         -0.22354109	         -0.30823482	
          4.72000000	         -0.73368723	         -0.22264001	         -0.30295553	
          4.73000000	         -0.72721876	         -0.21445926	         -0.29628389	
          4.74000000	         -0.71968818	         -0.20017229	         -0.28837896	
          4.75000000	         -0.71121767	         -0.18341231	         -0.27953330	
          4.76000000	         -0.70204846	         -0.16923901	         -0.27010743	
          4.77000000	         -0.69255761	         -0.16247336	         -0.26045427	
          4.78000000	         -0.68325226	         -0.16609321	         -0.25086223	
          4.79000000	         -0.67472579	         -0.18038555	         -0.24152373	
          4.80000000	         -0.66756247	         -0.20311019	         -0.23251502	
          4.81000000	         -0.66220514	         -0.23038912	         -0.22377465	
          4.82000000	         -0.65883184	         -0.25778227	         -0.21509013	
          4.83000000	         -0.65729450	         -0.28111874	         -0.20611856	
          4.84000000	         -0.65715027	         -0.29694311	         -0.19645864	
          4.85000000	         -0.65777942	         -0.30268319	         -0.18576652	
          4.86000000	         -0.65855183	         -0.29673244	         -0.17388489	
          4.87000000	         -0.65899003	         -0.27858017	         -0.16094512	
          4.88000000	         -0.65888187	         -0.24900449	         -0.14741038	
          4.89000000	         -0.65831597	         -0.21024205	         -0.13404569	
          4.90000000	         -0.65763860	         -0.16599172	         -0.12181344	
          4.91000000	         -0.65734867	         -0.12110343	         -0.11170081	
          4.92000000	         -0.65795616	         -0.08088368	         -0.10450413	
          4.93000000	         -0.65983648	         -0.05014166	         -0.10063081	
          4.94000000	         -0.66311730	         -0.03227670	         -0.09999604	
          4.95000000	         -0.66763066	         -0.02869442	         -0.10205594	
          4.96000000	         -0.67294387	         -0.03867620	         -0.10595455	
          4.97000000	         -0.67846357	         -0.05965965	         -0.11072413	
          4.98000000	         -0.68358599	         -0.08780244	         -0.11547831	
          4.99000000	         -0.68783581	         -0.11867510	         -0.11954971	
          5.00000000	         -0.69094779	         -0.14792090	         -0.12255021	
          5.01000000	         -0.69286702	         -0.17178684	         -0.12433921	
          5.02000000	         -0.69373808	         -0.18747937	         -0.12500841	
          5.03000000	         -0.69367914	         -0.19376158	         -0.12461836	
          5.04000000	         -0.69278507	         -0.19094028	         -0.12324137	
          5.05000000	         -0.69134519	         -0.18037319	         -0.12128445	
          5.06000000	         -0.68949480	         -0.16483527	         -0.11909708	
          5.07000000	         -0.68711492	         -0.14821572	         -0.11685198	
          5.08000000	         -0.68402514	         -0.13452271	         -0.11472069	
          5.09000000	         -0.68002665	         -0.12721048	         -0.11282319	
          5.10000000	         -0.67499915	         -0.12863762	         -0.11124612	
          5.11000000	         -0.66895467	         -0.13979506	         -0.11004446	
          5.12000000	         -0.66202359	         -0.16031916	         -0.10923431	
          5.13000000	         -0.65436849	         -0.18872367	         -0.10876347	
          5.14000000	         -0.64606796	         -0.22273535	         -0.10846601	
          5.15000000	         -0.63702691	         -0.25962570	         -0.10802565	
          5.16000000	         -0.62696629	         -0.29648895	         -0.10698423	
          5.17000000	         -0.61551804	         -0.33047235	         -0.10482105	
          5.18000000	         -0.60240488	         -0.35897398	         -0.10109003	
          5.19000000	         -0.58763841	         -0.37982431	         -0.09556068	
          5.20000000	         -0.57165249	         -0.39148831	         -0.08829994	
          5.21000000	         -0.55530295	         -0.39333839	         -0.07965629	
          5.22000000	         -0.53971285	         -0.38597487	         -0.07015241	
          5.23000000	         -0.52601898	         -0.37140955	         -0.06033843	
          5.24000000	         -0.51512379	         -0.35286137	         -0.05067586	
          5.25000000	         -0.50753357	         -0.33409925	         -0.04149869	
          5.26000000	         -0.50331047	         -0.31857504	         -0.03305074	
          5.27000000	         -0.50213007	         -0.30872777	         -0.02555462	
          5.28000000	         -0.50341108	         -0.30569344	         -0.01925312	
          5.29000000	         -0.50646818	         -0.30938249	         -0.01438671	
          5.30000000	         -0.51064057	         -0.31874521	         -0.01111662	
          5.31000000	         -0.51536391	         -0.33208799	         -0.00943934	
          5.32000000	         -0.52017679	         -0.34738509	         -0.00914363	
          5.33000000	         -0.52468264	         -0.36255109	         -0.00983509	
          5.34000000	         -0.52851034	         -0.37563206	         -0.01101909	
          5.35000000	         -0.53131360	         -0.38490309	         -0.01221228	
          5.36000000	         -0.53282757	         -0.38892365	         -0.01305187	
          5.37000000	         -0.53297202	         -0.38663250	         -0.01337901	
          5.38000000	         -0.53195963	         -0.37751326	         -0.01327855	
          5.39000000	         -0.53033790	         -0.36178086	         -0.01305889	
          5.40000000	         -0.52890401	         -0.34050281	         -0.01316614	
          5.41000000	         -0.52850656	         -0.31557984	         -0.01405012	
          5.42000000	         -0.52981650	         -0.28953932	         -0.01601769	
          5.43000000	         -0.53314320	         -0.26514818	         -0.01911391	
          5.44000000	         -0.53832802	         -0.24491814	         -0.02306348	
          5.45000000	         -0.54473271	         -0.23061727	         -0.02728996	
          5.46000000	         -0.55134158	         -0.22291209	         -0.03101080	
          5.47000000	         -0.55697547	         -0.22123757	         -0.03338463	
          5.48000000	         -0.56057804	         -0.22391350	         -0.03367301	
          5.49000000	         -0.56150473	         -0.22844128	         -0.03137878	
          5.50000000	         -0.55973354	         -0.23190034	         -0.02633593	
          5.51000000	         -0.55592371	         -0.23141798	         -0.01873927	
          5.52000000	         -0.55127939	         -0.22472150	         -0.00910786	
          5.53000000	         -0.54723678	         -0.21072403	          0.00181660	
          5.54000000	         -0.54506616	         -0.18997143	          0.01321986	
          5.55000000	         -0.54553274	         -0.16469612	          0.02437807	
          5.56000000	         -0.54874442	         -0.13832032	          0.03478830	
          5.57000000	         -0.55422197	         -0.11453945	          0.04423097	
          5.58000000	         -0.56112752	         -0.09636442	          0.05275267	
          5.59000000	         -0.56855488	         -0.08549615	          0.06058277	
          5.60000000	         -0.57579737	         -0.08220198	          0.06801678	
          5.61000000	         -0.58252358	         -0.08563195	          0.07530856	
          5.62000000	         -0.58881214	         -0.09437117	          0.08260263	
          5.63000000	         -0.59503045	         -0.10699909	          0.08991919	
          5.64000000	         -0.60160062	         -0.12247901	          0.09718435	
          5.65000000	         -0.60876319	         -0.14027785	          0.10428142	
          5.66000000	         -0.61645261	         -0.16020719	          0.11109489	
          5.67000000	         -0.62431399	         -0.18209213	          0.11753088	
          5.68000000	         -0.63180548	         -0.20546010	          0.12351332	
          5.69000000	         -0.63832550	         -0.22942066	          0.12896222	
          5.70000000	         -0.64334095	         -0.25278590	          0.13376672	
          5.71000000	         -0.64650342	         -0.27433848	          0.13777192	
          5.72000000	         -0.64772272	         -0.29306799	          0.14079823	
          5.73000000	         -0.64716104	         -0.30820896	          0.14269863	
          5.74000000	         -0.64513911	         -0.31902573	          0.14343796	
          5.75000000	         -0.64199760	         -0.32447863	          0.14315613	
          5.76000000	         -0.63799053	         -0.32306378	          0.14217093	
          5.77000000	         -0.63326839	         -0.31307405	          0.14090117	
          5.78000000	         -0.62795194	         -0.29328998	          0.13973178	
          5.79000000	         -0.62224165	         -0.26378056	          0.13888183	
          5.80000000	         -0.61649243	         -0.22640491	          0.13833353	
          5.81000000	         -0.61121091	         -0.18473532	          0.13784714	
          5.82000000	         -0.60697600	         -0.14337385	          0.13704965	
          5.83000000	         -0.60431713	         -0.10699021	          0.13554767	
          5.84000000	         -0.60358774	         -0.07942606	          0.13302715	
          5.85000000	         -0.60486305	         -0.06309708	          0.12932135	
          5.86000000	         -0.60788780	         -0.05880676	          0.12443896	
          5.87000000	         -0.61209330	         -0.06589130	          0.11855992	
          5.88000000	         -0.61668663	         -0.08251063	          0.11201112	
          5.89000000	         -0.62079712	         -0.10591608	          0.10523240	
          5.90000000	         -0.62365000	         -0.13265937	          0.09873548	
          5.91000000	         -0.62472719	         -0.15885131	          0.09305012	
          5.92000000	         -0.62387411	         -0.18061096	          0.08865121	
          5.93000000	         -0.62132163	         -0.19473894	          0.08587424	
          5.94000000	         -0.61761321	         -0.19947424	          0.08484795	
          5.95000000	         -0.61346022	         -0.19506547	          0.08548083	
          5.96000000	         -0.60957594	         -0.18389347	          0.08751818	
